Coordinates
nRows=107
nColumns=2
inDegrees=yes
endheader
time	ankle_angle_r	
2.79133	 -0.439704	
2.8629	 -0.488718	
2.93448	 -0.540352	
3.00605	 -0.544351	
3.07762	 -0.493627	
3.14919	 -0.472002	
3.22077	 -0.458306	
3.29234	 -0.417180	
3.36391	 -0.420646	
3.43548	 -0.449097	
3.50706	 -0.439314	
3.57863	 -0.412536	
3.6502	 -0.408177	
3.72177	 -0.436083	
3.79335	 -0.441216	
3.86492	 -0.403064	
3.93649	 -0.422082	
4.00806	 -0.475602	
4.07964	 -0.465270	
4.15121	 -0.460168	
4.22278	 -0.504340	
4.29435	 -0.545761	
4.36593	 -0.526762	
4.4375	 -0.484549	
4.50907	 -0.489663	
4.58065	 -0.487152	
4.65222	 -0.474011	
4.72379	 -0.468749	
4.79536	 -0.475920	
4.86694	 -0.485833	
4.93851	 -0.436503	
5.01008	 -0.427626	
5.08165	 -0.499365	
5.15323	 -0.514722	
5.2248	 -0.469816	
5.29637	 -0.467634	
5.36794	 -0.503366	
5.43952	 -0.475766	
5.51109	 -0.410518	
5.58266	 -0.408813	
5.65423	 -0.450092	
5.72581	 -0.439222	
5.79738	 -0.392649	
5.86895	 -0.410652	
5.94052	 -0.437301	
6.0121	 -0.407525	
6.08367	 -0.390833	
6.15524	 -0.419422	
6.22681	 -0.431290	
6.29839	 -0.413113	
6.36996	 -0.433803	
6.44153	 -0.465316	
6.5131	 -0.482208	
6.58468	 -0.485828	
6.65625	 -0.472042	
6.72782	 -0.500955	
6.7994	 -0.521539	
6.87097	 -0.496509	
6.94254	 -0.487695	
7.01411	 -0.507383	
7.08569	 -0.502490	
7.15726	 -0.431877	
7.22883	 -0.408061	
7.3004	 -0.468062	
7.37198	 -0.495908	
7.44355	 -0.479155	
7.51512	 -0.496402	
7.58669	 -0.538068	
7.65827	 -0.483446	
7.72984	 -0.429501	
7.80141	 -0.495667	
7.87298	 -0.506922	
7.94456	 -0.455215	
8.01613	 -0.478795	
8.0877	 -0.522634	
8.15927	 -0.496395	
8.23085	 -0.451812	
8.30242	 -0.476338	
8.37399	 -0.493457	
8.44556	 -0.450790	
8.51714	 -0.427917	
8.58871	 -0.428973	
8.66028	 -0.426932	
8.73185	 -0.422491	
8.80343	 -0.414469	
8.875	 -0.427446	
8.94657	 -0.448435	
9.01815	 -0.436543	
9.08972	 -0.426784	
9.16129	 -0.460347	
9.23286	 -0.491735	
9.30444	 -0.477560	
9.37601	 -0.459407	
9.44758	 -0.492309	
9.51915	 -0.520586	
9.59073	 -0.475528	
9.6623	 -0.451804	
9.73387	 -0.504112	
9.80544	 -0.495945	
9.87702	 -0.418267	
9.94859	 -0.413913	
10.0202	 -0.459877	
10.0917	 -0.465673	
10.1633	 -0.436162	
10.2349	 -0.420830	
10.3065	 -0.436016	
10.378	 -0.432829	
